<mxfile host="app.diagrams.net" modified="2022-11-19T04:51:35.043Z" agent="5.0 (Windows)" etag="HBzT1xKOmXOPLM8ckn9b" version="20.5.3" type="github">
  <diagram id="C5RBs43oDa-KdzZeNtuy" name="Page-1">
    <mxGraphModel dx="2062" dy="1112" grid="1" gridSize="10" guides="1" tooltips="1" connect="1" arrows="1" fold="1" page="1" pageScale="1" pageWidth="827" pageHeight="1169" math="0" shadow="0">
      <root>
        <mxCell id="WIyWlLk6GJQsqaUBKTNV-0" />
        <mxCell id="WIyWlLk6GJQsqaUBKTNV-1" parent="WIyWlLk6GJQsqaUBKTNV-0" />
        <mxCell id="lWVRBbov3qy_OSbc5B6Z-0" value="&lt;div&gt;DataBase &lt;br&gt;&lt;/div&gt;" style="shape=folder;fontStyle=1;tabWidth=110;tabHeight=30;tabPosition=left;html=1;boundedLbl=1;labelInHeader=1;container=1;collapsible=0;" parent="WIyWlLk6GJQsqaUBKTNV-1" vertex="1">
          <mxGeometry x="650" y="130" width="160" height="110" as="geometry" />
        </mxCell>
        <mxCell id="lWVRBbov3qy_OSbc5B6Z-1" value="" style="html=1;strokeColor=none;resizeWidth=1;resizeHeight=1;fillColor=none;part=1;connectable=0;allowArrows=0;deletable=0;" parent="lWVRBbov3qy_OSbc5B6Z-0" vertex="1">
          <mxGeometry width="160" height="77" relative="1" as="geometry">
            <mxPoint y="30" as="offset" />
          </mxGeometry>
        </mxCell>
        <mxCell id="lWVRBbov3qy_OSbc5B6Z-2" value="Tweepy" style="shape=folder;fontStyle=1;tabWidth=110;tabHeight=30;tabPosition=left;html=1;boundedLbl=1;labelInHeader=1;container=1;collapsible=0;" parent="WIyWlLk6GJQsqaUBKTNV-1" vertex="1">
          <mxGeometry x="414" y="130" width="166" height="110" as="geometry" />
        </mxCell>
        <mxCell id="lWVRBbov3qy_OSbc5B6Z-3" value="" style="html=1;strokeColor=none;resizeWidth=1;resizeHeight=1;fillColor=none;part=1;connectable=0;allowArrows=0;deletable=0;" parent="lWVRBbov3qy_OSbc5B6Z-2" vertex="1">
          <mxGeometry width="166" height="77" relative="1" as="geometry">
            <mxPoint y="30" as="offset" />
          </mxGeometry>
        </mxCell>
        <mxCell id="lWVRBbov3qy_OSbc5B6Z-4" value="&lt;div&gt;Graph Output&lt;/div&gt;" style="shape=folder;fontStyle=1;tabWidth=110;tabHeight=30;tabPosition=left;html=1;boundedLbl=1;labelInHeader=1;container=1;collapsible=0;" parent="WIyWlLk6GJQsqaUBKTNV-1" vertex="1">
          <mxGeometry x="400" y="300" width="210" height="120" as="geometry" />
        </mxCell>
        <mxCell id="lWVRBbov3qy_OSbc5B6Z-5" value="" style="html=1;strokeColor=none;resizeWidth=1;resizeHeight=1;fillColor=none;part=1;connectable=0;allowArrows=0;deletable=0;" parent="lWVRBbov3qy_OSbc5B6Z-4" vertex="1">
          <mxGeometry width="210" height="84" relative="1" as="geometry">
            <mxPoint y="30" as="offset" />
          </mxGeometry>
        </mxCell>
        <mxCell id="lWVRBbov3qy_OSbc5B6Z-6" value="Tweet Handling" style="shape=folder;fontStyle=1;tabWidth=110;tabHeight=30;tabPosition=left;html=1;boundedLbl=1;labelInHeader=1;container=1;collapsible=0;" parent="WIyWlLk6GJQsqaUBKTNV-1" vertex="1">
          <mxGeometry x="650" y="300" width="200" height="120" as="geometry" />
        </mxCell>
        <mxCell id="lWVRBbov3qy_OSbc5B6Z-7" value="" style="html=1;strokeColor=none;resizeWidth=1;resizeHeight=1;fillColor=none;part=1;connectable=0;allowArrows=0;deletable=0;" parent="lWVRBbov3qy_OSbc5B6Z-6" vertex="1">
          <mxGeometry width="200" height="84" relative="1" as="geometry">
            <mxPoint y="30" as="offset" />
          </mxGeometry>
        </mxCell>
        <mxCell id="lWVRBbov3qy_OSbc5B6Z-8" value="&lt;div&gt;VADER Analysis&lt;/div&gt;" style="shape=folder;fontStyle=1;tabWidth=110;tabHeight=30;tabPosition=left;html=1;boundedLbl=1;labelInHeader=1;container=1;collapsible=0;" parent="WIyWlLk6GJQsqaUBKTNV-1" vertex="1">
          <mxGeometry x="945" y="140" width="220" height="110" as="geometry" />
        </mxCell>
        <mxCell id="lWVRBbov3qy_OSbc5B6Z-9" value="" style="html=1;strokeColor=none;resizeWidth=1;resizeHeight=1;fillColor=none;part=1;connectable=0;allowArrows=0;deletable=0;" parent="lWVRBbov3qy_OSbc5B6Z-8" vertex="1">
          <mxGeometry width="220" height="77" relative="1" as="geometry">
            <mxPoint y="30" as="offset" />
          </mxGeometry>
        </mxCell>
        <mxCell id="lWVRBbov3qy_OSbc5B6Z-10" value="DataBase Handling" style="shape=folder;fontStyle=1;tabWidth=110;tabHeight=30;tabPosition=left;html=1;boundedLbl=1;labelInHeader=1;container=1;collapsible=0;" parent="WIyWlLk6GJQsqaUBKTNV-1" vertex="1">
          <mxGeometry x="940" y="305" width="230" height="110" as="geometry" />
        </mxCell>
        <mxCell id="lWVRBbov3qy_OSbc5B6Z-11" value="" style="html=1;strokeColor=none;resizeWidth=1;resizeHeight=1;fillColor=none;part=1;connectable=0;allowArrows=0;deletable=0;" parent="lWVRBbov3qy_OSbc5B6Z-10" vertex="1">
          <mxGeometry width="230" height="77" relative="1" as="geometry">
            <mxPoint y="30" as="offset" />
          </mxGeometry>
        </mxCell>
        <mxCell id="lWVRBbov3qy_OSbc5B6Z-15" value="&amp;lt;&amp;lt;Access&amp;gt;&amp;gt;" style="endArrow=block;dashed=1;html=1;rounded=0;strokeWidth=1;edgeStyle=elbowEdgeStyle;startArrow=none;startFill=0;endFill=0;labelPosition=center;verticalLabelPosition=top;align=center;verticalAlign=bottom;strokeColor=default;exitX=0.948;exitY=0.208;exitDx=0;exitDy=0;exitPerimeter=0;" parent="WIyWlLk6GJQsqaUBKTNV-1" source="lWVRBbov3qy_OSbc5B6Z-4" target="lWVRBbov3qy_OSbc5B6Z-0" edge="1">
          <mxGeometry x="0.0483" width="50" height="50" relative="1" as="geometry">
            <mxPoint x="380" y="260" as="sourcePoint" />
            <mxPoint x="661.9200000000001" y="667.04" as="targetPoint" />
            <Array as="points">
              <mxPoint x="600" y="330" />
            </Array>
            <mxPoint as="offset" />
          </mxGeometry>
        </mxCell>
        <mxCell id="lWVRBbov3qy_OSbc5B6Z-19" value="&amp;lt;&amp;lt;Access&amp;gt;&amp;gt;" style="endArrow=block;dashed=1;html=1;exitX=0.997;exitY=0.637;exitDx=0;exitDy=0;exitPerimeter=0;rounded=0;strokeWidth=1;edgeStyle=elbowEdgeStyle;startArrow=none;startFill=0;endFill=0;labelPosition=center;verticalLabelPosition=top;align=center;verticalAlign=bottom;strokeColor=default;" parent="WIyWlLk6GJQsqaUBKTNV-1" source="lWVRBbov3qy_OSbc5B6Z-6" target="lWVRBbov3qy_OSbc5B6Z-0" edge="1">
          <mxGeometry x="0.0483" width="50" height="50" relative="1" as="geometry">
            <mxPoint x="1000" y="615" as="sourcePoint" />
            <mxPoint x="1290" y="180" as="targetPoint" />
            <Array as="points">
              <mxPoint x="910" y="270" />
            </Array>
            <mxPoint as="offset" />
          </mxGeometry>
        </mxCell>
        <mxCell id="lWVRBbov3qy_OSbc5B6Z-20" value="&lt;div&gt;&amp;lt;&amp;lt;Use&amp;gt;&amp;gt;&lt;/div&gt;" style="endArrow=block;dashed=1;html=1;exitX=-0.006;exitY=0.489;exitDx=0;exitDy=0;exitPerimeter=0;rounded=0;strokeWidth=1;edgeStyle=elbowEdgeStyle;startArrow=none;startFill=0;endFill=0;labelPosition=center;verticalLabelPosition=top;align=center;verticalAlign=bottom;strokeColor=default;entryX=0.5;entryY=1;entryDx=0;entryDy=0;entryPerimeter=0;" parent="WIyWlLk6GJQsqaUBKTNV-1" source="lWVRBbov3qy_OSbc5B6Z-6" target="lWVRBbov3qy_OSbc5B6Z-2" edge="1">
          <mxGeometry width="50" height="50" relative="1" as="geometry">
            <mxPoint x="999.04" y="611.03" as="sourcePoint" />
            <mxPoint x="497" y="250" as="targetPoint" />
            <Array as="points">
              <mxPoint x="560" y="270" />
              <mxPoint x="540" y="270" />
              <mxPoint x="550" y="240" />
            </Array>
          </mxGeometry>
        </mxCell>
        <mxCell id="lWVRBbov3qy_OSbc5B6Z-23" value="&amp;lt;&amp;lt;Uses&amp;gt;&amp;gt;" style="endArrow=block;dashed=1;html=1;rounded=0;strokeWidth=1;edgeStyle=elbowEdgeStyle;startArrow=none;startFill=0;endFill=0;labelPosition=center;verticalLabelPosition=top;align=center;verticalAlign=bottom;strokeColor=default;" parent="WIyWlLk6GJQsqaUBKTNV-1" source="lWVRBbov3qy_OSbc5B6Z-0" target="lWVRBbov3qy_OSbc5B6Z-8" edge="1">
          <mxGeometry x="0.0483" width="50" height="50" relative="1" as="geometry">
            <mxPoint x="1140" y="280" as="sourcePoint" />
            <mxPoint x="990" y="235" as="targetPoint" />
            <Array as="points">
              <mxPoint x="1170" y="240" />
              <mxPoint x="1070" y="460" />
            </Array>
            <mxPoint as="offset" />
          </mxGeometry>
        </mxCell>
        <mxCell id="lWVRBbov3qy_OSbc5B6Z-24" value="&amp;lt;&amp;lt;Uses&amp;gt;&amp;gt;" style="endArrow=none;dashed=1;html=1;rounded=0;strokeWidth=1;edgeStyle=elbowEdgeStyle;startArrow=block;startFill=0;endFill=0;labelPosition=center;verticalLabelPosition=top;align=center;verticalAlign=bottom;strokeColor=default;entryX=0;entryY=0;entryDx=320;entryDy=150;entryPerimeter=0;exitX=0.9;exitY=0.255;exitDx=0;exitDy=0;exitPerimeter=0;" parent="WIyWlLk6GJQsqaUBKTNV-1" source="lWVRBbov3qy_OSbc5B6Z-10" target="lWVRBbov3qy_OSbc5B6Z-0" edge="1">
          <mxGeometry x="0.0483" width="50" height="50" relative="1" as="geometry">
            <mxPoint x="1009.04" y="621.0300000000002" as="sourcePoint" />
            <mxPoint x="880" y="390" as="targetPoint" />
            <Array as="points">
              <mxPoint x="870" y="290" />
              <mxPoint x="1020" y="510" />
            </Array>
            <mxPoint as="offset" />
          </mxGeometry>
        </mxCell>
      </root>
    </mxGraphModel>
  </diagram>
</mxfile>
